HIERARCHY
ROOT hips_dup
{
	OFFSET 38.994835 108.019676 230.402130
	CHANNELS 6 Xposition Yposition Zposition Zrotation Yrotation Xrotation
	JOINT l_hip_dup
	{
		OFFSET 0.100000 0.000000 0.000000
		CHANNELS 3 Zrotation Yrotation Xrotation
		JOINT l_thigh_dup
		{
			OFFSET 7.071068 -7.071068 0.000000
			CHANNELS 3 Zrotation Yrotation Xrotation
			JOINT l_knee_dup
			{
				OFFSET 0.000020 -50.000011 0.000000
				CHANNELS 3 Zrotation Yrotation Xrotation
				JOINT l_foot_dup
				{
					OFFSET 0.000022 -46.844974 0.000000
					CHANNELS 3 Zrotation Yrotation Xrotation
					JOINT l_toes_dup
					{
						OFFSET 0.000004 -3.481765 12.994138
						CHANNELS 3 Zrotation Yrotation Xrotation
						End l_toes_End_dup
						{
							OFFSET 0.000000 0.000003 9.999998
						}
					}
				}
			}
		}
	}
	JOINT r_hip_dup
	{
		OFFSET 0.100000 0.000000 0.000000
		CHANNELS 3 Zrotation Yrotation Xrotation
		JOINT r_thigh_dup
		{
			OFFSET -7.071067 -7.071068 0.000000
			CHANNELS 3 Zrotation Yrotation Xrotation
			JOINT r_knee_dup
			{
				OFFSET 0.000026 -50.000000 -0.000000
				CHANNELS 3 Zrotation Yrotation Xrotation
				JOINT r_foot_dup
				{
					OFFSET 0.000021 -46.844951 0.000000
					CHANNELS 3 Zrotation Yrotation Xrotation
					JOINT r_toes_dup
					{
						OFFSET 0.000006 -3.481758 12.994106
						CHANNELS 3 Zrotation Yrotation Xrotation
						End r_toes_End_dup
						{
							OFFSET 0.000000 -0.000003 9.999996
						}
					}
				}
			}
		}
	}
	JOINT spine1_dup
	{
		OFFSET 0.000000 0.099998 0.000000
		CHANNELS 3 Zrotation Yrotation Xrotation
		JOINT spine2_dup
		{
			OFFSET 0.000001 10.421844 0.000000
			CHANNELS 3 Zrotation Yrotation Xrotation
			JOINT spine3_dup
			{
				OFFSET 0.000001 10.421852 0.000000
				CHANNELS 3 Zrotation Yrotation Xrotation
				JOINT spine4_dup
				{
					OFFSET 0.000001 10.421829 -0.000000
					CHANNELS 3 Zrotation Yrotation Xrotation
					JOINT neck1_dup
					{
						OFFSET 0.000001 10.421814 0.000000
						CHANNELS 3 Zrotation Yrotation Xrotation
						JOINT neck2_dup
						{
							OFFSET 0.000000 5.749954 -0.000000
							CHANNELS 3 Zrotation Yrotation Xrotation
							JOINT head_dup
							{
								OFFSET 0.000000 5.749924 0.000000
								CHANNELS 3 Zrotation Yrotation Xrotation
								End head_End_dup
								{
									OFFSET 0.000000 11.499686 -0.000000
								}
							}
						}
					}
					JOINT l_clavicle_dup
					{
						OFFSET 0.000000 10.421844 0.000000
						CHANNELS 3 Zrotation Yrotation Xrotation
						JOINT l_shoulder_dup
						{
							OFFSET 17.847798 3.850716 -0.981963
							CHANNELS 3 Zrotation Yrotation Xrotation
							JOINT l_elbow_dup
							{
								OFFSET 30.849020 0.000016 -0.000001
								CHANNELS 3 Zrotation Yrotation Xrotation
								JOINT l_hand_dup
								{
									OFFSET 30.320339 0.000015 -0.000002
									CHANNELS 3 Zrotation Yrotation Xrotation
									End l_hand_End_dup
									{
										OFFSET 14.999237 0.000010 0.000000
									}
								}
							}
						}
					}
					JOINT r_clavicle_dup
					{
						OFFSET 0.000000 10.421844 0.000000
						CHANNELS 3 Zrotation Yrotation Xrotation
						JOINT r_shoulder_dup
						{
							OFFSET -18.112579 2.260853 -1.076626
							CHANNELS 3 Zrotation Yrotation Xrotation
							JOINT r_elbow_dup
							{
								OFFSET -30.849059 0.000005 0.000001
								CHANNELS 3 Zrotation Yrotation Xrotation
								JOINT r_hand_dup
								{
									OFFSET -30.627892 0.000005 0.000004
									CHANNELS 3 Zrotation Yrotation Xrotation
									End r_hand_End_dup
									{
										OFFSET -14.999262 0.000003 0.000000
									}
								}
							}
						}
					}
				}
			}
		}
	}
}
MOTION
Frames: 20
Frame Time: 0.041667
33.341	108.148	-2.343	-2.452	-186.771	-6.327	0.000	0.000	0.000	-3.201	8.297	-9.777	-0.000	0.000	26.504	-1.263	9.054	-15.597	0.002	-0.001	6.774	0.000	0.000	0.000	-14.232	-2.792	-10.107	-0.001	-0.000	63.277	10.270	2.119	4.781	0.002	-0.003	-4.992	-2.656	1.386	2.511	-1.397	1.387	2.071	-0.251	1.509	4.186	-0.118	1.565	7.115	1.869	9.589	-0.773	-0.407	9.605	-1.881	-2.863	9.661	-2.855	-12.108	-5.694	-3.740	-65.465	2.023	0.905	-0.129	-37.874	-0.133	-5.877	-16.034	-18.249	8.494	4.446	-1.781	72.046	9.868	-13.227	0.115	13.488	-0.165	1.129	-1.802	34.014
32.902	108.193	-4.352	-1.784	-185.587	-6.791	0.000	0.000	0.000	-2.746	7.987	-8.141	-0.000	0.000	26.732	-0.971	8.394	-16.980	0.002	-0.001	7.129	0.000	0.000	0.000	-13.405	-3.885	-11.706	-0.001	-0.000	61.922	10.151	1.962	0.687	0.002	-0.003	-4.796	-2.254	1.255	3.052	-1.177	1.280	2.391	-0.158	1.383	4.076	-0.034	1.491	6.916	2.654	12.797	0.294	-0.212	12.820	-1.340	-3.210	12.866	-2.644	-12.289	-5.204	-3.087	-65.235	-2.691	3.578	-0.127	-36.082	-0.138	-6.619	-15.701	-19.015	8.705	4.301	-1.237	70.435	9.404	-14.174	0.114	11.057	-0.170	-0.796	-2.437	35.104
32.365	108.506	-7.299	-1.122	-183.522	-7.258	0.000	0.000	0.000	-2.361	7.344	-5.423	-0.000	0.000	25.778	-0.492	7.431	-17.931	0.002	-0.001	7.384	0.000	0.000	0.000	-12.273	-5.419	-13.357	-0.001	-0.000	56.095	10.534	1.391	-3.836	0.002	-0.003	-5.593	-1.866	1.158	3.381	-0.994	1.153	2.554	-0.101	1.207	4.201	0.067	1.263	7.123	4.134	16.131	2.535	0.380	16.169	-0.385	-3.663	16.229	-2.682	-11.906	-4.379	-3.069	-66.681	-9.704	6.207	-0.124	-33.223	-0.145	-7.267	-15.222	-15.936	8.528	4.035	-0.773	69.617	7.444	-15.030	0.115	10.874	-0.171	-2.230	-2.501	38.632
32.092	108.715	-9.219	-0.906	-182.071	-7.390	0.000	0.000	0.000	-2.308	6.697	-3.684	-0.000	0.000	24.787	-0.294	6.920	-18.342	0.002	-0.001	7.581	0.000	0.000	0.000	-11.698	-6.275	-14.134	-0.001	-0.000	50.600	10.546	0.767	-5.239	0.002	-0.003	-5.684	-1.804	0.941	3.532	-0.919	0.942	2.642	-0.059	1.030	4.259	0.099	1.096	7.203	4.559	17.405	3.542	0.625	17.474	0.091	-3.651	17.518	-2.669	-12.078	-3.677	-3.262	-67.231	-12.792	8.114	-0.127	-34.455	-0.141	-6.831	-14.389	-15.213	8.220	3.918	-0.148	70.061	6.188	-16.473	0.117	12.132	-0.169	-2.829	-1.223	39.418
31.878	108.842	-12.042	-0.689	-179.874	-7.139	0.000	0.000	0.000	-2.262	5.450	-1.737	-0.000	0.000	23.639	-0.277	6.255	-19.382	0.002	-0.001	7.777	0.000	0.000	0.000	-10.872	-6.173	-15.307	-0.001	-0.000	40.952	10.476	-1.336	-5.492	0.002	-0.002	-7.177	-1.888	0.599	3.517	-0.922	0.611	2.622	-0.013	0.751	4.296	0.297	0.788	7.371	4.449	18.565	3.085	0.727	18.677	0.030	-3.331	18.761	-2.375	-11.849	-3.517	-3.231	-68.545	-15.642	9.496	-0.137	-39.016	-0.128	-4.371	-15.351	-17.091	7.715	3.749	-0.079	71.083	3.487	-16.208	0.119	14.791	-0.165	-0.384	0.535	37.907
31.870	108.849	-13.852	-0.626	-178.463	-6.792	0.000	0.000	0.000	-2.218	4.605	-0.693	-0.000	0.000	22.940	-0.423	5.767	-20.178	0.002	-0.001	7.820	0.000	0.000	0.000	-10.571	-5.606	-15.937	-0.001	-0.000	33.973	10.035	-3.396	-3.819	0.002	-0.002	-8.452	-2.014	0.411	3.399	-0.988	0.420	2.588	0.071	0.507	4.394	0.455	0.575	7.556	4.284	18.835	2.887	0.410	18.927	-0.235	-3.699	19.004	-2.606	-11.644	-3.581	-3.199	-69.489	-17.069	10.017	-0.144	-42.110	-0.117	-2.515	-17.651	-18.753	7.584	3.580	-0.528	71.846	1.681	-16.141	0.121	16.816	-0.161	1.025	1.835	35.744
31.937	108.738	-16.560	-0.615	-177.122	-6.153	0.000	0.000	0.000	-2.088	3.919	0.739	-0.000	0.000	21.945	-0.795	5.195	-21.395	0.002	-0.001	7.759	0.000	0.000	0.000	-10.400	-4.490	-17.092	-0.001	-0.000	24.204	8.862	-5.651	0.086	0.002	-0.002	-9.596	-1.966	0.264	3.070	-0.974	0.238	2.513	0.114	0.328	4.626	0.530	0.356	7.944	3.763	18.521	2.570	-0.208	18.571	-0.642	-4.503	18.638	-3.111	-11.403	-3.567	-3.066	-70.502	-18.217	10.995	-0.160	-47.575	-0.096	-0.074	-18.777	-22.604	7.411	3.578	-1.222	72.801	-1.048	-13.423	0.124	20.590	-0.154	3.581	0.964	31.216
32.092	108.576	-18.426	-0.654	-176.441	-5.716	0.000	0.000	0.000	-1.935	3.629	1.751	-0.000	0.000	21.207	-1.162	4.734	-22.387	0.002	-0.001	7.652	0.000	0.000	0.000	-10.191	-4.511	-17.714	-0.001	-0.000	17.816	8.631	-6.601	2.697	0.002	-0.002	-8.952	-1.958	0.164	2.845	-0.979	0.146	2.415	0.102	0.219	4.697	0.529	0.250	8.128	3.905	18.224	2.219	-0.420	18.284	-0.889	-5.063	18.381	-3.204	-11.288	-3.611	-3.123	-70.839	-18.155	11.770	-0.173	-51.020	-0.081	1.935	-18.898	-24.686	7.490	3.253	-1.608	74.078	-1.633	-15.193	0.126	21.759	-0.152	3.905	1.265	30.782
32.442	108.081	-21.333	-0.790	-175.667	-5.158	0.000	0.000	0.000	-1.767	2.891	3.271	-0.000	0.000	20.480	-1.593	4.555	-24.699	0.002	-0.001	7.746	0.000	0.000	0.000	-9.336	-6.352	-18.823	-0.001	-0.000	10.640	9.513	-7.163	4.482	0.002	-0.003	-5.987	-1.922	-0.025	2.550	-0.973	0.011	2.245	0.105	0.059	4.671	0.526	0.102	8.235	3.864	16.849	1.930	-0.686	16.926	-1.253	-5.589	17.024	-3.595	-11.500	-3.520	-2.789	-70.793	-17.910	12.475	-0.191	-54.869	-0.060	3.053	-18.689	-26.759	7.161	3.234	-1.930	75.925	-2.309	-16.406	0.128	22.745	-0.152	4.693	1.580	30.971
32.728	107.586	-23.462	-1.047	-175.271	-4.861	0.000	0.000	0.000	-1.762	2.547	4.351	-0.000	0.000	20.367	-1.783	4.493	-26.470	0.002	-0.001	7.824	0.000	0.000	0.000	-9.140	-6.325	-19.630	-0.001	-0.000	7.929	10.218	-8.019	2.673	0.002	-0.003	-5.966	-1.935	-0.128	2.329	-1.013	-0.117	2.081	0.058	-0.069	4.636	0.519	-0.039	8.315	3.254	15.286	0.937	-0.885	15.342	-1.618	-5.271	15.454	-3.554	-11.707	-3.336	-2.687	-70.167	-16.947	13.352	-0.206	-57.468	-0.043	3.786	-17.874	-27.458	6.845	3.108	-1.993	77.210	-2.500	-16.814	0.129	23.550	-0.151	4.729	1.239	30.720
33.248	106.951	-26.809	-1.566	-174.914	-4.395	0.000	0.000	0.000	-1.736	2.481	6.000	-0.000	0.000	20.136	-2.036	4.398	-28.181	0.002	-0.001	8.074	0.000	0.000	0.000	-8.798	-6.380	-20.966	-0.001	-0.000	7.917	9.300	-7.943	1.039	0.002	-0.003	-7.845	-1.995	-0.348	2.023	-1.063	-0.359	1.915	0.017	-0.319	4.589	0.472	-0.290	8.133	2.652	12.193	-0.352	-1.023	12.230	-2.053	-4.813	12.309	-3.318	-12.246	-3.385	-2.848	-68.908	-13.900	13.635	-0.231	-60.965	-0.016	4.306	-18.305	-28.173	7.404	2.862	-1.856	77.413	-3.119	-15.335	0.132	26.439	-0.146	5.525	-1.468	28.737
33.722	106.517	-29.148	-1.879	-174.606	-4.121	0.000	0.000	0.000	-1.626	2.204	6.821	-0.000	0.000	20.684	-2.293	4.548	-29.231	0.002	-0.001	7.868	0.000	0.000	0.000	-8.346	-6.932	-21.815	-0.001	-0.000	10.137	8.290	-6.903	0.427	0.002	-0.003	-7.355	-2.079	-0.589	1.953	-1.072	-0.630	1.760	0.053	-0.564	4.330	0.483	-0.516	7.797	2.383	9.895	-0.785	-0.983	9.938	-2.118	-4.452	10.027	-3.134	-11.841	-3.268	-2.545	-68.687	-11.914	13.894	-0.242	-62.237	-0.004	4.447	-18.170	-28.108	7.876	2.769	-1.888	76.952	-3.969	-13.991	0.135	28.703	-0.141	6.088	-1.556	27.502
34.613	106.192	-32.928	-2.086	-173.994	-3.843	0.000	0.000	0.000	-0.979	1.763	7.766	-0.000	0.000	22.541	-2.990	4.151	-29.116	0.002	-0.001	5.671	0.000	0.000	0.000	-8.207	-5.563	-22.237	-0.001	-0.000	13.158	7.825	-7.080	4.628	0.002	-0.003	-8.789	-2.133	-1.088	1.636	-1.029	-1.096	1.579	0.266	-0.979	4.107	0.834	-0.959	7.373	2.042	6.714	-1.453	-1.010	6.780	-2.220	-4.111	6.894	-2.767	-11.812	-2.928	-0.527	-67.596	-10.514	13.874	-0.260	-63.942	0.015	4.214	-16.045	-31.108	8.521	2.553	-2.516	75.468	-5.389	-11.755	0.140	31.667	-0.134	7.279	0.099	25.913
35.255	106.273	-35.909	-1.962	-173.726	-3.789	0.000	0.000	0.000	-0.076	1.753	8.862	-0.000	0.000	23.358	-3.504	3.343	-27.434	0.002	-0.001	3.267	0.000	0.000	0.000	-7.914	-4.485	-21.851	-0.001	-0.000	14.962	7.231	-7.672	6.020	0.002	-0.003	-5.626	-1.944	-1.325	0.842	-0.897	-1.428	1.265	0.490	-1.291	4.321	1.192	-1.219	7.777	1.841	5.126	-1.793	-1.105	5.171	-2.280	-4.103	5.267	-2.645	-12.428	-2.987	-1.382	-66.529	-7.364	14.211	-0.273	-65.104	0.028	4.169	-14.816	-32.986	8.732	2.236	-3.241	74.361	-5.901	-10.640	0.143	32.840	-0.131	6.797	1.358	25.440
36.241	106.630	-40.354	-1.529	-173.993	-3.946	0.000	0.000	0.000	1.567	1.896	9.907	-0.000	0.000	25.999	-4.267	2.207	-23.496	0.002	-0.001	-1.319	0.000	0.000	0.000	-6.866	-3.353	-20.936	-0.001	-0.000	17.821	5.481	-7.525	5.075	0.002	-0.003	0.162	-1.275	-1.522	-0.040	-0.501	-1.575	0.954	0.770	-1.557	4.564	1.505	-1.508	8.098	1.778	3.351	-2.397	-1.126	3.396	-2.481	-4.044	3.494	-2.508	-13.092	-3.133	-1.943	-65.288	-3.390	13.985	-0.290	-66.367	0.046	2.582	-13.434	-33.724	8.759	2.063	-4.345	72.952	-6.358	-10.195	0.145	33.678	-0.129	5.557	2.143	24.240
36.870	106.909	-43.405	-1.129	-174.663	-4.156	0.000	0.000	0.000	2.960	2.696	10.441	-0.000	0.000	28.207	-5.107	1.362	-20.020	0.002	-0.000	-4.904	0.000	0.000	0.000	-5.939	-2.365	-20.142	-0.001	-0.000	19.796	4.904	-7.364	2.558	0.002	-0.003	1.264	-0.598	-1.518	-0.324	-0.158	-1.539	0.740	0.841	-1.501	4.415	1.574	-1.519	7.910	1.865	2.632	-2.675	-0.995	2.677	-2.548	-3.873	2.773	-2.377	-12.438	-3.115	-1.225	-65.708	-1.291	13.656	-0.299	-66.927	0.054	2.588	-15.718	-32.943	8.652	1.798	-4.549	72.055	-6.475	-10.201	0.145	33.673	-0.130	5.473	2.001	23.600
38.071	107.559	-47.893	-0.476	-175.489	-4.584	0.000	0.000	0.000	5.159	3.334	10.122	-0.000	0.000	33.049	-6.205	0.172	-12.813	0.002	-0.000	-10.773	0.000	0.000	0.000	-4.335	-0.934	-18.247	-0.001	-0.000	21.730	4.044	-7.819	-0.553	0.002	-0.003	0.863	0.144	-1.484	-0.349	0.297	-1.509	0.625	1.005	-1.472	4.052	1.683	-1.553	7.362	2.124	2.027	-3.187	-0.600	2.078	-2.624	-3.325	2.157	-2.071	-10.705	-2.968	-1.007	-67.110	2.447	12.881	-0.325	-68.669	0.082	1.875	-17.009	-32.574	8.766	1.403	-4.780	70.846	-5.834	-11.229	0.143	31.918	-0.136	4.373	1.496	22.413
38.992	107.899	-50.733	-0.070	-175.764	-4.940	0.000	0.000	0.000	7.005	4.133	9.340	-0.000	0.000	36.896	-6.427	-1.425	-7.580	0.002	-0.000	-14.124	0.000	0.000	0.000	-3.231	-0.163	-16.786	-0.001	-0.000	22.682	3.496	-8.345	-2.630	0.002	-0.003	1.857	0.550	-1.545	-0.248	0.527	-1.553	0.650	1.074	-1.568	4.032	1.723	-1.549	7.250	2.392	1.815	-3.600	-0.274	1.858	-2.815	-2.930	1.952	-2.009	-10.095	-3.299	-1.439	-66.783	5.129	12.346	-0.375	-71.490	0.134	2.727	-15.773	-33.050	9.000	1.282	-4.635	70.021	-4.564	-12.357	0.142	30.484	-0.141	4.341	1.511	22.714
40.386	108.049	-54.715	0.391	-176.019	-5.580	0.000	0.000	0.000	9.642	5.211	6.984	-0.000	0.000	44.619	-6.473	-3.518	0.105	0.002	-0.000	-14.379	0.000	0.000	0.000	-1.687	0.602	-14.676	-0.001	-0.000	24.431	2.815	-8.959	-6.337	0.002	-0.003	3.984	0.968	-1.606	0.157	0.762	-1.609	0.853	1.244	-1.614	4.116	2.001	-1.604	7.300	2.554	1.588	-4.261	0.122	1.627	-3.354	-2.295	1.719	-2.404	-9.815	-3.250	-1.987	-65.882	7.795	11.257	-0.552	-77.424	0.315	4.617	-17.225	-34.066	9.504	1.212	-5.001	68.552	-2.916	-14.117	0.140	28.470	-0.148	3.278	2.510	24.188
41.067	108.057	-57.132	0.539	-176.123	-6.071	0.000	0.000	0.000	10.828	5.609	4.338	-0.000	0.000	50.989	-6.270	-3.742	5.458	0.002	-0.000	-10.174	0.000	0.000	0.000	-0.978	0.914	-13.168	-0.001	-0.000	25.336	2.545	-9.144	-8.634	0.002	-0.003	5.338	1.358	-1.601	0.803	0.969	-1.607	1.222	1.327	-1.592	4.112	2.030	-1.627	7.134	2.385	1.417	-4.778	0.357	1.461	-3.857	-1.654	1.547	-2.929	-10.222	-2.803	-2.578	-64.690	8.657	10.854	-0.906	-82.349	0.674	5.478	-18.916	-34.259	9.952	1.169	-4.825	67.484	-1.014	-16.886	0.137	26.366	-0.154	3.120	4.009	26.029
